<svg xmlns="http://www.w3.org/2000/svg" version="1.1" xmlns:xlink="http://www.w3.org/1999/xlink" xmlns:svgjs="http://svgjs.dev/svgjs" width="1000" height="1000" viewBox="0 0 1000 1000"><rect width="1000" height="1000" fill="#ffffff"></rect><g transform="matrix(0.7,0,0,0.7,149.57575757575756,347.5289473684211)"><svg viewBox="0 0 396 247" data-background-color="#ffffff" preserveAspectRatio="xMidYMid meet" height="623" width="1000" xmlns="http://www.w3.org/2000/svg" xmlns:xlink="http://www.w3.org/1999/xlink"><defs></defs><g id="tight-bounds" transform="matrix(1,0,0,1,0.2400000000000091,-0.09999999999999432)"><svg viewBox="0 0 395.52 247.2" height="247.2" width="395.52"><g><svg></svg></g><g><svg viewBox="0 0 395.52 247.2" height="247.2" width="395.52"><g transform="matrix(1,0,0,1,118.31484526258798,47.215199999999996)"><svg viewBox="0 0 158.89030947482402 152.7696" height="152.7696" width="158.89030947482402"><g><svg viewBox="0 0 158.89030947482402 152.7696" height="152.7696" width="158.89030947482402"><g><svg viewBox="0 0 158.89030947482402 152.7696" height="152.7696" width="158.89030947482402"><g><svg viewBox="0 0 158.89030947482402 152.7696" height="152.7696" width="158.89030947482402"><g><svg viewBox="0 0 158.89030947482402 152.7696" height="152.7696" width="158.89030947482402"><g><svg viewBox="0 0 158.89030947482402 152.7696" height="152.7696" width="158.89030947482402"><g transform="matrix(1,0,0,1,0,0)"><svg width="158.89030947482402" viewBox="-3.9100000858306885 -35.689998626708984 46.900001525878906 45.089996337890625" height="152.7696" data-palette-color="#001fff"><path d="M-0.29 9.4L-0.29 9.4Q-2.59 9.4-3.91 8.74L-3.91 8.74-3.91 5.2Q-2.17 5.69-0.29 5.69L-0.29 5.69Q2.12 5.69 3.38 4.22 4.64 2.76 4.64 0L4.64 0 4.64-35.69 8.79-35.69 8.79-0.34Q8.79 4.3 6.45 6.85 4.1 9.4-0.29 9.4ZM18.26 0L18.26-35.69 28.34-35.69Q35.45-35.69 38.62-33.57 41.79-31.45 41.79-26.86L41.79-26.86Q41.79-23.68 40.02-21.62 38.25-19.56 34.86-18.95L34.86-18.95 34.86-18.7Q42.99-17.31 42.99-10.16L42.99-10.16Q42.99-5.37 39.76-2.69 36.52 0 30.71 0L30.71 0 18.26 0ZM22.41-32.1L22.41-20.41 29.25-20.41Q33.64-20.41 35.57-21.79 37.5-23.17 37.5-26.44L37.5-26.44Q37.5-29.44 35.35-30.77 33.2-32.1 28.51-32.1L28.51-32.1 22.41-32.1ZM29.51-16.89L22.41-16.89 22.41-3.54 29.86-3.54Q34.18-3.54 36.36-5.21 38.55-6.88 38.55-10.45L38.55-10.45Q38.55-13.77 36.31-15.33 34.08-16.89 29.51-16.89L29.51-16.89Z" opacity="1" transform="matrix(1,0,0,1,0,0)" fill="#000000" class="undefined-text-0" data-fill-palette-color="primary" id="text-0"></path></svg></g></svg></g></svg></g></svg></g></svg></g></svg></g></svg></g><g><path d="M236.63 236.05A79.445 79.445 0 1 0 236.63 11.15L250.407 11.15A65.668 65.668 0 1 1 250.407 236.05L236.63 236.05" fill="#041370" stroke="transparent" data-fill-palette-color="tertiary"></path></g></svg></g></svg><rect width="395.52" height="247.2" fill="none" stroke="none" visibility="hidden"></rect></g></svg></g></svg>